<?xml version="1.0" encoding="utf-8"?>
<!-- Generator: Adobe Illustrator 14.0.0, SVG Export Plug-In . SVG Version: 6.00 Build 43363)  -->
<!DOCTYPE svg PUBLIC "-//W3C//DTD SVG 1.1//EN" "http://www.w3.org/Graphics/SVG/1.1/DTD/svg11.dtd">
<svg version="1.1" id="Layer_1" xmlns="http://www.w3.org/2000/svg" xmlns:xlink="http://www.w3.org/1999/xlink" x="0px" y="0px"
	 width="712px" height="74px" viewBox="0 0 712 74" enable-background="new 0 0 712 74" xml:space="preserve">
<g>
	<g>
		<path fill="#000" d="M602.286,43.092h77.27V61.49h-77.27V43.092z M602.286,12.919h77.27v17.872h-77.27V12.919z M673.774,74
			c13.667,0,19.975-5.677,19.975-15.454v-8.621c0-2.732-0.946-3.995-2.944-5.677l-8.831-7.569l8.831-7.57
			c1.998-1.682,2.944-2.943,2.944-5.677v-7.569c0-9.777-6.308-15.454-19.975-15.454h-85.365V74H673.774z M453.001,43.092h77.271
			V61.49h-77.271V43.092z M453.001,12.919h77.271v17.872h-77.271V12.919z M524.49,74c13.666,0,19.974-5.677,19.974-15.454v-8.621
			c0-2.732-0.946-3.995-2.942-5.677l-8.831-7.569l8.831-7.57c1.996-1.682,2.942-2.943,2.942-5.677v-7.569
			c0-9.777-6.308-15.454-19.974-15.454h-85.366V74H524.49z M377.417,0.409v60.45h-73.065V0.409h-13.877v56.77
			c0,10.408,6.307,16.821,18.818,16.821h63.183c12.512,0,18.818-6.413,18.818-16.821V0.409H377.417z M154.646,30.476V0.409h-13.877
			V74h13.877V43.407h74.117V74h13.877V0.409h-13.877v30.067H154.646z M100.294,13.55V0.409H18.818C6.308,0.409,0,6.822,0,17.23
			v39.949C0,67.587,6.308,74,18.818,74h81.476V60.859H14.193V13.55H100.294z"/>
	</g>
</g>
<g>
	<path fill="#000" d="M709.604,10.29c-1.143,1.148-2.522,1.722-4.145,1.722c-1.621,0-3-0.574-4.136-1.722
		c-1.132-1.142-1.698-2.526-1.698-4.152c0-1.61,0.571-2.987,1.713-4.129c1.138-1.137,2.511-1.706,4.121-1.706
		c1.622,0,3.002,0.569,4.145,1.706c1.144,1.137,1.715,2.513,1.715,4.129C711.318,7.759,710.747,9.142,709.604,10.29 M701.905,2.583
		c-0.979,0.983-1.468,2.17-1.468,3.563c0,1.403,0.486,2.598,1.459,3.586c0.979,0.989,2.166,1.483,3.562,1.483
		c1.398,0,2.585-0.494,3.562-1.483c0.979-0.988,1.468-2.183,1.468-3.586c0-1.393-0.489-2.58-1.468-3.563
		c-0.981-0.988-2.17-1.483-3.562-1.483C704.073,1.1,702.887,1.595,701.905,2.583z M705.348,2.91c0.797,0,1.381,0.077,1.753,0.231
		c0.664,0.276,0.997,0.819,0.997,1.627c0,0.575-0.209,0.998-0.627,1.269c-0.222,0.144-0.531,0.248-0.929,0.312
		c0.502,0.079,0.871,0.289,1.103,0.628c0.232,0.34,0.351,0.672,0.351,0.996v0.469c0,0.149,0.005,0.308,0.015,0.478
		c0.012,0.17,0.03,0.281,0.057,0.334l0.04,0.08h-1.062c-0.004-0.021-0.01-0.043-0.015-0.064c-0.006-0.021-0.012-0.045-0.017-0.071
		l-0.023-0.206V8.484c0-0.742-0.202-1.232-0.606-1.47c-0.239-0.138-0.659-0.207-1.259-0.207h-0.893v2.527H703.1V2.91H705.348z
		 M706.57,3.922c-0.285-0.159-0.742-0.24-1.371-0.24h-0.967V6.01h1.022c0.48,0,0.839-0.048,1.079-0.143
		c0.443-0.176,0.664-0.511,0.664-1.005C706.998,4.395,706.855,4.081,706.57,3.922z"/>
</g>
</svg>
