<?xml version="1.0" encoding="utf-8"?>
<!-- Generator: Adobe Illustrator 22.1.0, SVG Export Plug-In . SVG Version: 6.00 Build 0)  -->
<svg version="1.1" id="Layer_1" xmlns="http://www.w3.org/2000/svg" xmlns:xlink="http://www.w3.org/1999/xlink" x="0px" y="0px"
	 viewBox="0 0 275.8 65.3" style="enable-background:new 0 0 275.8 65.3;" xml:space="preserve">
<style type="text/css">
	.st0{fill:#58595B;}
	.st1{fill:url(#SVGID_1_);}
	.st2{fill:#B51650;}
</style>
<path class="st0" d="M81.9,12h15.2c0.1-1.3,0.2-2.7,0.2-4.2c0-2-0.1-4.2-0.3-6.5c1.1,0.2,2.3,0.4,3.5,0.6c1.2,0.2,1.8,0.4,2,0.4
	c0.1,0.1,0.2,0.2,0.2,0.3c0,0.2-0.3,0.4-0.8,0.6c-0.5,0.2-0.8,0.4-0.8,0.6L101,9.2l-0.2,2.8h10.3l1.8-2.4c0.1-0.1,0.2-0.1,0.4-0.1
	c0.2,0,1.1,0.5,2.5,1.4c1.4,1,2.1,1.5,2.1,1.7c0,0.1,0,0.2-0.1,0.2l-0.2,0.1h-14.7c0.9,7.2,6.3,12.7,16,16.5l-0.1,0.5l-1.9-0.1
	c-1.4-0.1-2.8,0.5-4.4,1.7c-7-5-10.7-11.2-11.1-18.7l-0.5,0c-0.6,6.1-2.7,10.7-6.1,13.5c-3.5,2.9-7.2,4.8-11.1,5.9l-1.2,0.3
	l-0.4-0.6c9.5-4.3,14.5-10.7,15.1-19.2H86.5c-0.8,0-2,0.1-3.5,0.3L81.9,12z"/>
<path class="st0" d="M134.1,30.1l-0.6-0.5c2.2-3,3.9-6,4.8-8.9l0.3-0.1l3.2,1.7c0.1,0.1,0.2,0.2,0.2,0.3c0,0.1-0.3,0.3-0.8,0.6
	c-0.5,0.2-0.8,0.4-0.9,0.6C138.3,26.3,136.3,28.5,134.1,30.1z M145.9,19.8v6.4l0.1,5.4c0,0.4-0.5,0.7-1.5,1.1l-1.2,0.4l-0.3,0.1
	c-0.3,0-0.4-0.1-0.4-0.3l0.2-3.8v-9.1h-3.8c-0.7,0-1.6,0.1-2.7,0.4l-1.2-1.4h7.8l-0.1-3.4l-4.7,0c-0.7,0-1.6,0.1-2.6,0.3l-1.2-1.4
	h10.5c0.9-2.1,1.5-4.2,1.9-6.5h-8c-0.3,0-1.2,0.1-2.7,0.4l-1.3-1.4h8.1c-0.1-2.1-0.8-3.6-2-4.5l0.4-0.5c3.4,0.9,5.1,2,5.1,3.1
	c0,0.6-0.4,1.2-1.3,2h3.6l1.7-2.1c0.1-0.1,0.2-0.2,0.4-0.2c0.2,0,0.8,0.5,2,1.4c1.2,0.9,1.8,1.5,1.8,1.6c0,0.2-0.2,0.3-0.6,0.3h-6.4
	l3.3,1.4c0.1,0,0.2,0.1,0.2,0.3c0,0.2-0.2,0.4-0.6,0.4c-0.4,0.1-0.7,0.1-0.8,0.2c-1.3,1.9-2.4,3.3-3.1,4.1h3.1l1.7-2.1
	c0.1-0.1,0.2-0.1,0.4-0.1c0.2,0,0.8,0.4,1.9,1.3c1,0.9,1.6,1.4,1.6,1.5c0,0.2-0.1,0.3-0.4,0.3h-8.3v3.4h2.6l1.7-1.8
	c0.1-0.1,0.2-0.1,0.4-0.1c0.2,0,0.3,0,0.4,0.1l2.8,2.2c0.2,0.2,0.3,0.3,0.3,0.4c0,0.2-0.1,0.3-0.3,0.3H145.9z M137.7,8.8l0.4-0.4
	c3.1,1.1,4.7,2.2,4.7,3.6c0,0.5-0.2,1-0.7,1.5c-0.4,0.5-0.9,0.7-1.3,0.7c-0.1,0-0.5-0.7-1.1-2.2C139.1,10.5,138.4,9.5,137.7,8.8z
	 M146.4,21.3l0.5-0.4c2.5,1.3,4,2.2,4.6,2.7c0.6,0.5,0.8,1,0.8,1.5c0,0.6-0.2,1.1-0.6,1.5c-0.4,0.4-0.8,0.6-1.2,0.6
	c-0.4,0-0.9-0.7-1.4-2C148.4,23.9,147.5,22.6,146.4,21.3z M165.2,14.5v14.6l0.1,2.6c0,0.7-1.1,1.2-3.2,1.5c-0.2-0.1-0.3-0.3-0.3-0.5
	l0.2-9.3v-8.8l-3.7,0l-0.4,6c-0.2,2.1-0.8,4.2-2,6.1c-1.2,1.9-3.3,3.9-6.3,5.9c-0.3-0.4-0.5-0.6-0.5-0.6c3.6-3.3,5.5-7,5.7-11.1
	l0.2-2.3v-7.8c0-1.7-0.1-3.7-0.2-5.8c0.8,0.3,2.1,0.7,3.8,1.4c3.2-1.2,5.9-2.5,8.2-4c1.8,2,2.8,3.1,2.8,3.4c0,0.2-0.2,0.3-0.4,0.3
	c-0.1,0-0.3,0-0.6-0.1c-0.3-0.1-0.5-0.1-0.6-0.1c-0.3,0-0.8,0.1-1.4,0.2c-2.1,0.6-4.8,1.1-8.2,1.5v6.2h6.8l1.7-2.2
	c0.1-0.1,0.2-0.1,0.4-0.1c0.2,0,0.8,0.4,1.8,1.3c1,0.9,1.4,1.4,1.4,1.6c0,0.3-0.6,0.5-1.7,0.5H165.2z"/>
<path class="st0" d="M202.1,17.2c0,0.3-0.1,0.4-0.3,0.4h-6.1v6c1.3-1.6,2.5-3.2,3.5-4.8c1.9,1.2,2.8,1.9,2.8,2.1
	c0,0.2-0.2,0.3-0.5,0.3c-0.3,0-0.6,0.1-0.8,0.2c-1.5,1.2-3.1,2.3-4.9,3.4v2.3c3.4-0.5,5.3-0.9,5.7-1l0.2,0.6l-7,2
	c-2.2,0.6-4.4,1.4-6.8,2.2c-0.1,0.3-0.3,0.4-0.5,0.4c-0.1,0-0.3,0-0.4-0.1c-0.1-0.1-0.5-1-1.3-2.7l6-0.8l0.9-0.2v-9.9h-3
	c-0.4,0-0.9,0.1-1.5,0.2c-0.6,0.1-1,0.2-1.2,0.2l-1-1.3h6.7v-3.9h-3.3c-1.1,1.2-2.4,2.6-4,4.2l-0.7-0.3c2.2-2.7,4.5-6.9,6.8-12.6
	l1.1-2.6c0.2,0,0.8,0.3,1.8,0.7c1,0.5,1.7,0.8,1.9,0.9c0.3,0.1,0.4,0.2,0.4,0.3c0,0.1-0.2,0.3-0.5,0.4c-0.3,0.1-0.6,0.4-0.9,0.8
	c2,0.5,3.7,1.1,4.9,1.6c1.3,0.6,1.9,1.3,1.9,2.1c0,0.5-0.2,1-0.5,1.4c-0.3,0.4-0.6,0.6-0.9,0.6c-0.3,0-0.7-0.4-1.4-1.1
	c-1.7-2-3.2-3.3-4.7-3.8c-1.3,2-2.8,4-4.5,6.2l5.7,0.1l1.4-1.4c0.1,0,0.2-0.1,0.3-0.1c0.2,0,0.7,0.3,1.6,1c0.9,0.6,1.3,1.1,1.3,1.2
	c0,0.2-0.1,0.3-0.3,0.3h-4.5v3.9h2.1l1.4-1.6c0.1-0.1,0.2-0.1,0.3-0.1C199.7,15,200.6,15.7,202.1,17.2z M188.2,19.2
	c2.3,2,3.4,3.5,3.4,4.4c0,0.6-0.2,1.1-0.7,1.6c-0.5,0.5-0.9,0.7-1.3,0.7c-0.3,0-0.5-0.1-0.7-0.4c0-2.3-0.4-4.3-1.3-6L188.2,19.2z
	 M222.1,29.1l-0.2,0.5c-2-0.1-3.5,0.5-4.6,1.6c-1.9-1.3-3.6-2.8-5-4.4c-1.4-1.6-2.4-3.2-2.9-4.6c-0.5-1.4-1-3.4-1.5-5.8H206v12
	c2.5-0.7,4.2-1.3,5.3-1.7l0.2,0.5l-7.1,5c-0.1,0.4-0.3,0.6-0.6,0.6c-0.2,0-0.7-0.4-1.4-1.2c-0.7-0.8-1-1.3-0.9-1.4
	c0.1-0.1,0.3-0.2,0.7-0.4c0.4-0.2,0.6-0.3,0.6-0.5V8.5l-0.3-5.9c1.3,0.5,2.6,1.1,3.8,1.7h6.8l1.4-1.2c0.1-0.1,0.2-0.1,0.4-0.1
	c0.2,0,0.7,0.2,1.5,0.7c0.8,0.5,1.2,0.8,1.2,0.9c0,0.1-0.1,0.3-0.4,0.6c-0.3,0.3-0.4,0.5-0.4,0.6v6.1c0.1,0.9,0.2,2.4,0.2,4.4
	c0,0.2-0.5,0.5-1.4,0.8c-0.9,0.4-1.5,0.5-1.7,0.5c-0.3,0-0.4-0.1-0.4-0.4v-1.1H209c0.6,2.3,1.4,4.1,2.5,5.6c2.6-1.9,4.7-3.8,6.2-5.6
	l2.7,2.6c0,0.3-0.2,0.4-0.8,0.4c-0.3,0-0.5,0-0.6,0.1c-2.6,1.5-4.8,2.6-6.7,3.4c0.3,0.6,1.2,1.5,3,2.8
	C216.9,26.8,219.2,28,222.1,29.1z M213.6,9.7V5.3h-7.5v4.5H213.6z M213.6,15.2v-4.5h-7.5v4.5H213.6z"/>
<path class="st0" d="M246.6,7.7c2.8,1.2,4.2,2,4.2,2.3c0,0.2-0.2,0.4-0.6,0.5c-0.4,0.1-0.8,0.3-1.1,0.5c-0.3,0.3-0.8,0.8-1.4,1.7
	c-0.7,0.9-1.1,1.4-1.4,1.8l2.2,0.8c0,0.1,0.1,0.2,0.1,0.2c0,0.2-0.2,0.4-0.6,0.5c-0.4,0.2-0.6,0.4-0.6,0.6v10.6l0.2,3.7
	c0,0.3-0.5,0.6-1.6,0.9c-1.1,0.4-1.6,0.6-1.7,0.6c-0.3,0-0.4-0.1-0.4-0.3l0.2-9.6v-5.4l-4.3,3.6l-2.7,2c-0.1,0-0.2-0.1-0.3-0.2
	c-0.1-0.1-0.2-0.2-0.3-0.2c0.1-0.1,0.1-0.2,0.3-0.3c0.1-0.1,0.2-0.2,0.2-0.2l3.9-4.4C243.2,14.6,245.2,11.4,246.6,7.7z M246.4,1.2
	c2.8,1.5,4.2,2.4,4.2,2.6c0,0.2-0.3,0.4-1,0.6c-0.7,0.2-1.8,0.9-3.3,2.1c-1.6,1.2-3.3,2.4-5.1,3.5c-1.9,1.1-2.9,1.7-3.1,1.7
	c-0.1,0-0.2,0-0.3-0.1c-0.1-0.1-0.2-0.1-0.2-0.2C241.6,7.7,244.5,4.4,246.4,1.2z M267.5,13.1l1.5-1.9c0.1-0.1,0.2-0.2,0.4-0.2
	c0.3,0,1,0.4,2.2,1.2c1.2,0.8,1.8,1.3,1.8,1.4c0,0.3-0.1,0.4-0.4,0.4h-6.9l-0.1,0.1v14.9c0,1.6-1.6,2.8-4.9,3.5
	c-0.1-0.1-0.1-0.3-0.2-0.5c-0.3-1.7-2.1-2.9-5.3-3.5l0-0.7c2.6,0.3,4.7,0.4,6.3,0.4c0.2,0,0.4-0.2,0.6-0.5V14.2h-9.8
	c-0.3,0-0.8,0.1-1.6,0.2c-0.7,0.1-1.3,0.1-1.8,0.3l-0.9-1.5H267.5z M265,5.2l1.8-2.1c0.1-0.1,0.2-0.1,0.3-0.1c0.2,0,0.9,0.4,2.2,1.3
	c1.3,0.9,1.9,1.4,1.9,1.5c0,0.3-0.2,0.4-0.7,0.4h-16.1c-1.6,0.2-2.5,0.3-2.8,0.4l-0.9-1.5H265z"/>
<path class="st0" d="M83.1,62.7h2.2V44.2h-2.2v-0.5h9.5c5.8,0,9.8,3.8,9.8,9.9c0,3.5-2.1,9.6-9.7,9.6h-9.7V62.7z M89.5,62.7H92
	c5.4,0,6.1-4.5,6.1-9.3c0-5.3-0.7-9.1-5.7-9.1h-2.8V62.7z"/>
<path class="st0" d="M141.8,55.9h0.5c0.7,3.1,2.8,7.3,6.5,7.3c2.4,0,4-1.5,4-3.9c0-6-11-1.7-11-10c0-3.7,2.4-5.9,6.1-5.9
	c2.8,0,3.7,1.5,4.9,1.5c0.8,0,0.9-0.7,0.9-1.1h0.5v6.2h-0.5c-0.7-2.9-2.2-6.1-5.7-6.1c-2.1,0-3.7,1.6-3.7,3.8
	c0,5.3,11.2,1.1,11.2,9.3c0,4.3-2.4,6.7-6.3,6.7c-2.4,0-4.7-1.4-5.8-1.4c-0.7,0-1,0.5-1,1h-0.5V55.9z"/>
<path class="st0" d="M193.2,57.9v0.6h0v0h1.7v2.4c0,1.6-1.2,2.2-2.7,2.2c-2.2,0-3.9-0.7-3.9-7.4c0-4.3,1.1-7.4,3.9-7.4
	c3,0,4.7,2.4,5,4.9h0.4v-4.9h-0.4c0,0.4-0.2,0.7-0.7,0.7c-0.6,0-2.4-1.1-4.5-1.1c-4.1,0-7.4,3.3-7.4,8.1c0,4.5,3.5,7.6,7.7,7.6
	c2.8,0,4.7-0.8,5.9-1.8v-3.2h1.5v-0.6H193.2z"/>
<path class="st0" d="M213.3,52.8L213.3,52.8c2.7-0.3,5.7-1.5,5.7-4.5c0-3.2-3.3-4.6-6.4-4.6h-8.8v0.6h1.9v18.3h-1.8l0,0.6h0v0l8.6,0
	c5.1,0,7.8-2.3,7.8-5.3C220.1,54.6,217.1,52.8,213.3,52.8z M211.3,44.4c2.4,0,3.8,1.2,3.8,4.5c0,2.8-2.1,3.8-3.8,3.8h-1.7v-8.3
	H211.3z M211.2,62.6h-1.5v-9.3h1.9c2.5,0,4.2,1.7,4.2,4.7C215.7,61.3,213.9,62.6,211.2,62.6z"/>
<path class="st0" d="M272.5,62.7h-2.1l-6.5-9.2l3.5-3.2c1.1-1.1,2.3-1.4,3.8-1.4h0.6v-0.6h-5.9v0.6h0.4c0.9,0,1.1,0.1,1.1,0.4
	c0,0.1-0.4,0.5-0.9,1l-5.3,4.9v-6.3h2.1l0-0.6h-7.6v0.6h2v13.9h-2v0.6l7.4,0v-0.6h-2v-6.8l0.3-0.4l5,7.1h-1.7v0.6h7.7v0l0,0V62.7z"
	/>
<path class="st0" d="M249.1,48.2v0.6h0.4c1,0,1.5,0.3,1.5,1.1v8.6h-0.1l-8.7-10.4l-4.6,0v0.6h0.9l0.8,1v11.8c-0.1,0.9-0.7,1-1.4,1
	h-0.4v0.6h4.4v-0.6h-0.2c-1.2,0-1.7-0.1-1.7-1.2V50.5l10.7,13h1V49.9c-0.1-0.5,0.4-1.1,1.4-1.1h0.3v-0.6H249.1z"/>
<path class="st0" d="M178.8,48.2v0.6h0.4c1,0,1.5,0.3,1.5,1.1v8.6h-0.1l-8.7-10.4l-4.7,0v0.6h0.9l0.8,1v11.8c-0.1,0.9-0.7,1-1.4,1
	h-0.4v0.6h4.3v-0.6h-0.2c-1.2,0-1.7-0.1-1.7-1.2V50.5l10.7,13h1V49.9c-0.1-0.5,0.4-1.1,1.4-1.1h0.3v-0.6H178.8z"/>
<polygon class="st0" points="165,48.8 165,48.2 157.7,48.2 157.7,48.8 159.7,48.8 159.7,62.6 157.7,62.6 157.7,63.2 157.7,63.2 
	157.7,63.2 165,63.2 165,62.6 163,62.6 163,48.8 "/>
<polygon class="st0" points="136,48.8 136,48.2 128.6,48.2 128.6,48.8 130.6,48.8 130.6,55 124.5,55 124.5,48.8 126.4,48.8 
	126.4,48.2 119.1,48.2 119.1,48.8 121.1,48.8 121.1,62.6 119.1,62.6 119.1,63.2 119.1,63.2 119.1,63.2 126.4,63.2 126.4,62.6 
	124.5,62.6 124.5,55.6 130.6,55.6 130.6,62.6 128.6,62.6 128.6,63.2 136,63.2 136,62.6 133.9,62.6 133.9,48.8 "/>
<path class="st0" d="M235.8,62.6h-1.2l-6.1-14.8h-0.3l-5.3,13.6c-0.3,0.7-0.7,1.2-1.6,1.2H221v0.6h4.2v-0.6h-0.6
	c-0.5,0-1.1,0-1.1-0.7c0-0.2,0.1-0.5,0.2-0.6l1.1-2.8h4.7l1.5,4.1h-2l0,0.6h6.9L235.8,62.6z M227.1,52.4l2,5.5h-4.2l2.1-5.5
	L227.1,52.4z"/>
<path class="st0" d="M117.4,62.6h-1.2l-6.1-14.8h-0.3l-5.3,13.6c-0.3,0.7-0.7,1.2-1.6,1.2h-0.3v0.6h4.2v-0.6H106
	c-0.5,0-1.1,0-1.1-0.7c0-0.2,0.1-0.5,0.2-0.6l1.1-2.8h4.7l1.5,4.1h-2l0,0.6h6.9L117.4,62.6z M108.6,52.4l2,5.5h-4.2l2.1-5.5
	L108.6,52.4z"/>
<linearGradient id="SVGID_1_" gradientUnits="userSpaceOnUse" x1="1.5989" y1="32.8085" x2="69.458" y2="32.8085">
	<stop  offset="0" style="stop-color:#B1B3B6"/>
	<stop  offset="0.2" style="stop-color:#C7C8CA"/>
	<stop  offset="0.43" style="stop-color:#939598"/>
	<stop  offset="0.74" style="stop-color:#C7C8CA"/>
	<stop  offset="1" style="stop-color:#6D6E71"/>
</linearGradient>
<path class="st1" d="M14.8,63.2h41.5c7.2,0,13.2-6,13.2-13.4c0-7.3-5.9-13.4-13.2-13.4h-16l13.9,13.8L49,55.4L35.6,42L22,55.5
	l-5.1-5.2l14-13.8H14.8c-7.3,0-13.2,6.1-13.2,13.4C1.6,57.2,7.5,63.3,14.8,63.2L14.8,63.2z M56.3,2.4H14.8c-7.3,0-13.2,6-13.2,13.4
	c0,7.4,5.9,13.4,13.2,13.4h17.1V11.4h7.4v17.8h17.1c7.2,0,13.2-6,13.2-13.4C69.5,8.4,63.5,2.3,56.3,2.4z"/>
<path class="st2" d="M56.3,60.9L56.3,60.9H15h-0.1c-6,0-11-5-11-11c0-6.1,4.9-11.1,10.9-11.1h10.3L13.5,50.3l8.5,8.5l13.6-13.4
	L49,58.8l8.5-8.5L45.9,38.8h10.3c6,0,10.9,5,10.9,11.1C67.1,56,62.3,60.9,56.3,60.9L56.3,60.9z"/>
<path class="st2" d="M56.1,26.8H41.6V9H29.5v17.8H14.9c-6,0-10.9-4.9-10.9-11C4,9.7,8.8,4.7,14.8,4.7h0.1h41.2h0.1
	c6,0,10.9,5,10.9,11.1C67.1,21.9,62.2,26.8,56.1,26.8L56.1,26.8z"/>
</svg>
